# xmcd
#
# Track frame offsets:
#	150
#	13157
#	29567
#	61287
#	79682
#	95717
#	107612
#	124737
#	141047
#	156450
#	170965
#	191135
#	211120
#	231315
#	246312
#	264002
#	285602
#	301725
#	319892
#	339615
#
# Disc length: 4797 seconds
#
# Revision: 29
# Processed by: cddbd v1.5PL3 Copyright (c) Steve Scherf et al.
# Submitted via: dBpowerAMP V4.0
#
DISCID=2612bb14
DTITLE=Various Artist - Link
DYEAR=2002
DGENRE=Soundtrack
TTITLE0=Enya/Book Of Days
TTITLE1=Faith Hill/There You'll Be
TTITLE2=Derek and The Dominos/Layla
TTITLE3=U2/Beautiful Day
TTITLE4=Michelle Branch/Everywhere
TTITLE5=The Mamas and The Papas/California Dreamin'
TTITLE6=Donna Summer/Hot Stuff
TTITLE7=Aqua/Cartoon Heroes
TTITLE8=The Corrs/Breathless
TTITLE9=Elton John/Goodbye Yellow Brick Road
TTITLE10=Alanis Morissette/Hands Clean
TTITLE11=Boyz II Men/Pass You By
TTITLE12=Jewel/Standing Still
TTITLE13=Lisa Loeb/Someone You Should Know
TTITLE14=R.E.M./Imitation Of Life
TTITLE15=Eric Clapton/I Ain't Gonna Stand For It
TTITLE16=Uncle Kracker/Follow Me
TTITLE17=Nelly Furtado/I'm Like A Bird
TTITLE18=Enrique Iglesias/Hero
TTITLE19=Morelenbaum2 - Sakamoto/0 Grand Amor
EXTD=
EXTT0=
EXTT1=
EXTT2=
EXTT3=
EXTT4=
EXTT5=
EXTT6=
EXTT7=
EXTT8=
EXTT9=
EXTT10=
EXTT11=
EXTT12=
EXTT13=
EXTT14=
EXTT15=
EXTT16=
EXTT17=
EXTT18=
EXTT19=
PLAYORDER=
